<svg width="223" height="101" viewBox="0 0 223 101" fill="none" xmlns="http://www.w3.org/2000/svg">
<path d="M0 39.5H20.3L10.2 54L0 39.5Z" fill="#323B47"/>
<path d="M110 29.7C104.3 29.7 99.8 34 99.8 40C99.8 46 103.9 50.2 110 50.2C115.9 50.2 120.1 45.9 120.1 40C120.2 33.9 115.6 29.7 110 29.7Z" fill="url(#paint0_linear_2_96)"/>
<path d="M156.8 29.7C151.1 29.7 146.6 34 146.6 40C146.6 46 150.7 50.2 156.8 50.2C162.7 50.2 166.9 45.9 166.9 40C167 33.9 162.5 29.7 156.8 29.7Z" fill="url(#paint1_linear_2_96)"/>
<path d="M152.3 63.1C144.9 63.1 138.7 59.6 134.9 54.2V63C134.9 66.3 134.4 69.2 133.3 71.8L144.1 66.5C145.7 69.1 149.4 72.1 155.9 72.1C160.1 72.1 166.6 69.6 166.6 61.9V58.7C163.4 62.2 158.3 63.1 152.3 63.1Z" fill="url(#paint2_linear_2_96)"/>
<path d="M222.1 56.8H201.8L212 42.3L222.1 56.8Z" fill="#323B47"/>
<path d="M110 29.7C104.3 29.7 99.8 34 99.8 40C99.8 46 103.9 50.2 110 50.2C115.9 50.2 120.1 45.9 120.1 40C120.2 33.9 115.6 29.7 110 29.7Z" fill="url(#paint3_linear_2_96)"/>
<path d="M156.8 29.7C151.1 29.7 146.6 34 146.6 40C146.6 46 150.7 50.2 156.8 50.2C162.7 50.2 166.9 45.9 166.9 40C167 33.9 162.5 29.7 156.8 29.7Z" fill="url(#paint4_linear_2_96)"/>
<path d="M152.3 63.1C144.9 63.1 138.7 59.6 134.9 54.2V63C134.9 66.3 134.4 69.2 133.3 71.8L144.1 66.5C145.7 69.1 149.4 72.1 155.9 72.1C160.1 72.1 166.6 69.6 166.6 61.9V58.7C163.4 62.2 158.3 63.1 152.3 63.1Z" fill="url(#paint5_linear_2_96)"/>
<path d="M195.1 60.1L211.9 36.2C205.8 15.3 186.5 0 163.5 0H59.8C36.9 0 17.5 15.3 11.4 36.2H27L10.2 60C14.7 83.3 35.1 100.9 59.8 100.9H163.5C188.1 100.9 208.5 83.3 213 60.1H195.1ZM181.7 63C181.7 77.7 170.9 85.2 156 85.2C147.3 85.2 137.3 83.3 132.4 73.8C128.4 81.3 119.8 85.2 109.2 85.2C100.1 85.2 89.6 83.2 85 72.5L97.4 66.4C99 69 102.7 72 109.2 72C113.4 72 119.9 69.5 119.9 61.8V58.6C116.7 62.2 111.6 63 105.6 63C94.2 63 85.9 54.9 84.2 44.1L63.4 83.9H46L61.1 54.9L40.4 18.1H57.7L69.9 40.5L80.3 18.1H97.7L97.6 18.3C100 17.4 102.7 16.8 105.5 16.8C111.3 16.8 116 18.7 119.6 22H119.9V18.1H135V25.8C138.8 20.3 145 16.8 152.4 16.8C158.2 16.8 162.9 18.7 166.5 22H166.8V18.1H181.7V63Z" fill="url(#paint6_linear_2_96)"/>
<path d="M46 83.9H63.4L84.2 44.1C85.9 54.9 94.2 63 105.6 63C111.6 63 116.7 62.1 119.9 58.6V61.8C119.9 69.6 113.4 72 109.3 72C102.7 72 99.1 69 97.5 66.4L85.1 72.4C89.7 83 100.2 85.1 109.3 85.1C119.9 85.1 128.5 81.2 132.5 73.7C137.4 83.2 147.3 85.1 156.1 85.1C171 85.1 181.8 77.5 181.8 62.9V18H166.7V22H166.4C162.8 18.7 158.1 16.8 152.3 16.8C144.9 16.8 138.7 20.3 134.9 25.8V18.1H119.8V22H119.5C115.9 18.7 111.2 16.8 105.4 16.8C102.6 16.8 99.9 17.3 97.5 18.3L97.6 18.1H80.3L69.9 40.5L57.7 18.1H40.4L61.1 55L46 83.9Z" fill="#323B47"/>
<path d="M110 29.7C104.3 29.7 99.8 34 99.8 40C99.8 46 103.9 50.2 110 50.2C115.9 50.2 120.1 45.9 120.1 40C120.2 33.9 115.6 29.7 110 29.7Z" fill="url(#paint7_linear_2_96)"/>
<path d="M156.8 29.7C151.1 29.7 146.6 34 146.6 40C146.6 46 150.7 50.2 156.8 50.2C162.7 50.2 166.9 45.9 166.9 40C167 33.9 162.5 29.7 156.8 29.7Z" fill="url(#paint8_linear_2_96)"/>
<path d="M152.3 63.1C144.9 63.1 138.7 59.6 134.9 54.2V63C134.9 66.3 134.4 69.2 133.3 71.8L144.1 66.5C145.7 69.1 149.4 72.1 155.9 72.1C160.1 72.1 166.6 69.6 166.6 61.9V58.7C163.4 62.2 158.3 63.1 152.3 63.1Z" fill="url(#paint9_linear_2_96)"/>
<defs>
<linearGradient id="paint0_linear_2_96" x1="109.981" y1="29.669" x2="109.981" y2="50.203" gradientUnits="userSpaceOnUse">
<stop stop-color="#6FDFE4"/>
<stop offset="0.4317" stop-color="#6BDECD"/>
<stop offset="1" stop-color="#65DDAF"/>
</linearGradient>
<linearGradient id="paint1_linear_2_96" x1="156.785" y1="29.669" x2="156.785" y2="50.203" gradientUnits="userSpaceOnUse">
<stop stop-color="#6FDFE4"/>
<stop offset="0.4317" stop-color="#6BDECD"/>
<stop offset="1" stop-color="#65DDAF"/>
</linearGradient>
<linearGradient id="paint2_linear_2_96" x1="149.986" y1="54.127" x2="149.986" y2="72.1" gradientUnits="userSpaceOnUse">
<stop stop-color="#6FDFE4"/>
<stop offset="1" stop-color="#65DDAF"/>
</linearGradient>
<linearGradient id="paint3_linear_2_96" x1="109.981" y1="29.669" x2="109.981" y2="50.203" gradientUnits="userSpaceOnUse">
<stop stop-color="#6FDFE4"/>
<stop offset="0.4317" stop-color="#6BDECD"/>
<stop offset="1" stop-color="#65DDAF"/>
</linearGradient>
<linearGradient id="paint4_linear_2_96" x1="156.786" y1="29.669" x2="156.786" y2="50.203" gradientUnits="userSpaceOnUse">
<stop stop-color="#6FDFE4"/>
<stop offset="0.4317" stop-color="#6BDECD"/>
<stop offset="1" stop-color="#65DDAF"/>
</linearGradient>
<linearGradient id="paint5_linear_2_96" x1="149.986" y1="54.127" x2="149.986" y2="72.1" gradientUnits="userSpaceOnUse">
<stop stop-color="#6FDFE4"/>
<stop offset="1" stop-color="#65DDAF"/>
</linearGradient>
<linearGradient id="paint6_linear_2_96" x1="111.645" y1="0" x2="111.645" y2="100.932" gradientUnits="userSpaceOnUse">
<stop stop-color="#6FDFE4"/>
<stop offset="1" stop-color="#65DDAF"/>
</linearGradient>
<linearGradient id="paint7_linear_2_96" x1="109.981" y1="29.669" x2="109.981" y2="50.203" gradientUnits="userSpaceOnUse">
<stop stop-color="#6FDFE4"/>
<stop offset="0.4317" stop-color="#6BDECD"/>
<stop offset="1" stop-color="#65DDAF"/>
</linearGradient>
<linearGradient id="paint8_linear_2_96" x1="156.785" y1="29.669" x2="156.785" y2="50.203" gradientUnits="userSpaceOnUse">
<stop stop-color="#6FDFE4"/>
<stop offset="0.4317" stop-color="#6BDECD"/>
<stop offset="1" stop-color="#65DDAF"/>
</linearGradient>
<linearGradient id="paint9_linear_2_96" x1="149.986" y1="54.127" x2="149.986" y2="72.1" gradientUnits="userSpaceOnUse">
<stop stop-color="#6FDFE4"/>
<stop offset="1" stop-color="#65DDAF"/>
</linearGradient>
</defs>
</svg>
